<svg xmlns="http://www.w3.org/2000/svg" width="100%" height="100%" viewBox="0 0 1171 911" fill-rule="evenodd" stroke-linejoin="round" stroke-miterlimit="2" xmlns:v="https://vecta.io/nano"><path d="M632.218 286.563c-.243-.157-.121-.013 0 .196.08-.078.122-.118 0-.196zm-76.325-7.124c-.08.039-.107.065-.12.091.322-.183.497-.288.12-.091zm109.642 108.407c-5.609 8.587-11.499 16.979-17.331 25.412l-19.699 28.116 9.344-49.738c-5.996 16.783-10.376 33.998-15.726 50.813-18.65-6.001-37.553-10.958-56.603-14.563-.686-1.743-1.318-3.465-1.896-5.167-4.047-11.894-5.445-22.676-4.181-32.364h.013c1.936-12.731 3.186-23.216 3.778-31.438.605-8.577.47-14.865-.417-18.834l-.376-1.117c-3.482-7.45-4.289-13.225-2.447-17.333l.377-3.201c-3.442-18.105-4.827-30.405-4.141-36.915 3.616 3.399 8.644 10.327 15.111 20.772l3.267 2.444c6.211 1.79 12.033 2.928 17.477 3.411 5.593.51 10.742.314 15.424-.575l3.061-1.659c9.657-10.066 16.738-16.171 21.246-18.327v.065c.175 5.764-2.733 16.797-8.703 33.072l-.307 1.571c-.185 3.969-.752 7.425-1.652 10.376-.837 2.67-1.939 4.85-3.337 6.551l-1.023 1.96c-2.15 7.501-.964 14.865 3.554 22.089 4.111 6.618 11.034 13.009 20.758 19.206l2.712.889c7.76.519 14.99 2.026 21.717 4.484z" fill="#0d143e"/><path d="M590.566 200.941c4.649 3.072 9.909 5.529 15.206 7.412 10.217 3.621 16.849 1.817 20.556-7.987 6.87-18.17 12.194-36.903 17.866-55.491 2.315-7.543 2.421-15.163-.927-20.719-1.424 8.026-2.108 17.36-4.851 26.092-4.238 13.542-9.709 26.719-14.98 39.935-5.36 13.451-12.204 15.66-24.455 7.856-15.527-9.856-30.369-20.444-34.335-39.739-.861-4.196-1.008-8.536-1.775-12.693-2.689 24.026 7.65 42.053 27.695 55.334zm-227.694 166.81l59.478-51.044c12.087-10.615 23.367-22.105 35.036-33.177 7.395-7.02 14.627-14.235 22.345-20.928 7.744-6.719 16.94-12.066 23.81-19.478 23.111-24.902 36.434-54.758 43.815-87.216 7.865-34.628 27.037-58.785 65.556-64.366 28.851-4.184 68.376 5.607 80.775 38.47 2.596 6.863 19.492 13.805 26.081 17.504 14.047 7.882 29.201 14.013 44.207 20.196 9.545 3.935 11.627 8.039 7.326 17.203-2.961 6.3-5.271 12.889-8.014 19.294-1.976 4.653-3.713 9.491-6.362 13.765-3.734 6.039-30.435 23.281-37.734 23.621-10.074.471-30.721.183-40.711-1.007-9.306-1.097-18.39-3.816-27.575-5.817l-.445.772 13.512 8.353c-2.341 3.058-5.429 5.817-6.816 9.229-2.003 4.954-5.657 5.268-9.503 4.078-16.187-5.033-33.142-8.732-48.131-16.131-16.027-7.921-30.157-19.464-46.976-30.654 9.707 9.399 17.545 18.236 26.66 25.582 19.59 15.791 43.007 24.458 67.144 31.269 4.222 1.189 5.281 2.875 5.456 6.902.27 6.457.683 13.084 2.431 19.281 5.355 18.967 11.256 37.806 17.183 56.626 3.077 9.806 2.69 19.061-.71 27.87-7.622-2.942-15.811-4.772-24.566-5.502-7.702-5.045-13.068-10.001-16.108-14.876-2.606-4.186-3.453-8.34-2.553-12.485 1.939-2.611 3.459-5.697 4.561-9.266 1.086-3.532 1.774-7.584 2.055-12.16 6.239-17.123 9.264-29.24 9.063-36.312-.133-4.667-1.627-7.948-4.45-9.856-3.024-2.053-6.748-2.105-11.16-.17-5.62 2.47-13.618 9.033-23.957 19.686-3.226.445-6.722.497-10.488.157-4.046-.366-8.442-1.176-13.188-2.444-7.597-12.079-13.714-19.83-18.352-23.256-3.926-2.901-7.569-3.503-10.917-1.803-2.917 1.49-4.746 4.523-5.485 9.097-1.143 7.217.107 20.602 3.764 40.131-2.326 6.657-1.371 14.652 2.877 24.027.565 3.043.592 8.129.081 15.266-.551 7.872-1.788 18.069-3.684 30.579v.103c-1.492 11.256-.013 23.53 4.437 36.796-53.589-8.366-108.066-5.605-160.593 14.68a276.77 276.77 0 0 1-29.175-72.589z" fill="#082d72"/><path d="M557.265 342.836c-4.168-8.942-4.988-16.213-2.474-21.819-10.016-52.575-2.877-59.242 21.417-19.987 11.777 3.386 21.846 4.288 30.21 2.706 31.876-33.229 39.228-26.419 22.061 20.404-.445 8.89-2.516 15.595-6.208 20.105-3.432 11.96 3.883 23.689 21.95 35.191 29.365 2.011 51.924 17.005 67.682 44.982 13.459 18.887 23.3 36.154 29.524 51.832-3.242 3.959-6.563 7.882-9.91 11.723-5.165 5.949-10.514 11.868-16.039 17.632-1.144-4.967-3.215-9.79-6.012-14.192-8.008-12.628-21.213-21.647-34.953-27.571-37.189-16.038-76.067-28.733-115.5-35.541-4.934-13.585-6.655-25.978-5.176-37.151 3.831-25.242 4.974-41.347 3.428-48.314z" fill="#f3b020"/><path d="M686.974 542.876c37.898-25.843 103.469-88.56 118.12-118.116 14.877-30.055 41.88-6.078 34.952 13.544-4.572 3.425-8.508 7.816-11.799 12.341-29.647 40.848-71.502 71.031-119.648 86.416-7.134 2.288-14.362 4.221-21.625 5.815zm9.872-14.479c25.98-24.291 63.113-69.504 70.82-90.592 6.272-17.148 19.724-13.317 25.009-4.129l-1.442 2.001c-4.262 5.8-8.864 11.384-13.602 16.809-11.416 13.122-23.794 25.648-36.425 37.608-12.811 12.13-26.17 23.936-40.005 34.904l-4.355 3.399zm181.02-43.203c-56.753 97.034-160.785 156.861-273.449 157.267s-217.113-58.665-274.572-155.282a31.19 31.19 0 0 0 .722-.535c-69.693-113.453-61.616-258.069 20.271-363.115S571.31-25.021 698.804 14.299C583.49-10.446 464.483 35.606 396.129 131.424s-72.932 223.009-11.644 323.468v.01c78.464-34.641 170.356-28.676 275.673 17.9 56.438 24.954 39.338 82.153-26.274 63.529-31.115-8.839-55.624-15.231-73.772-19.545-42.392-10.078-34.354 13.215-5.1 23.571 101.648 35.932 214.979.586 278.019-86.252 29.885-41.177 64.347 4.916 44.835 31.089z" fill="#e6e6e6"/><text x="-1.897" y="813.184" font-family="TimesNewRomanPS-BoldMT, Times New Roman, serif" font-weight="700" font-size="134" fill="#001459">NO SCRIPT<tspan x="721.624px 755.124px" y="813.184px 813.184px"> S</tspan>HOW</text><text x="8.292" y="1013.64" font-family="TimesNewRomanPSMT, Times New Roman, serif" font-size="85.965" fill="#001459" transform="matrix(1 0 0 .930614 0 -34.3963)">VETERINARY<tspan x="557.451px 578.942px" y="1013.64px 1013.64px"> C</tspan>ARE CENTRE</text></svg>